<?xml version="1.0" standalone="no"?>
<!DOCTYPE svg PUBLIC "-//W3C//DTD SVG 20010904//EN"
 "http://www.w3.org/TR/2001/REC-SVG-20010904/DTD/svg10.dtd">
<svg version="1.0" xmlns="http://www.w3.org/2000/svg"
 width="300.000000pt" height="389.000000pt" viewBox="0 0 300.000000 389.000000"
 preserveAspectRatio="xMidYMid meet">

<g transform="translate(0.000000,389.000000) scale(0.100000,-0.100000)"
fill="#69afff" stroke="none">
<path d="M1575 3366 c-17 -7 -38 -24 -47 -37 -12 -20 -70 -167 -85 -219 -2 -8
-14 10 -27 41 -41 101 -104 169 -157 169 -65 0 -179 -85 -179 -133 0 -15 11
-56 25 -93 31 -83 31 -106 -1 -174 l-26 -55 -27 85 c-33 103 -69 175 -109 218
-39 42 -81 42 -166 2 -119 -57 -186 -129 -186 -202 0 -20 7 -67 16 -105 29
-122 8 -252 -91 -572 -52 -166 -68 -275 -62 -406 3 -60 12 -132 21 -160 14
-43 15 -59 4 -114 -10 -54 -10 -75 5 -148 25 -121 96 -275 198 -427 116 -175
195 -270 324 -395 166 -160 333 -255 468 -267 152 -14 355 77 515 230 226 216
434 673 458 1006 5 71 3 95 -15 147 -15 44 -18 69 -12 85 5 13 12 57 16 98 11
122 -24 243 -106 362 -22 33 -39 61 -37 62 7 6 145 82 173 97 49 24 67 71 62
160 -8 132 -69 229 -153 245 -50 9 -146 -2 -263 -32 -95 -24 -102 -24 -126 -8
l-25 17 48 51 c71 75 77 89 61 145 -18 62 -95 141 -139 141 -43 0 -84 -24
-147 -83 -29 -27 -53 -45 -53 -40 0 6 11 41 25 77 45 119 28 183 -58 225 -50
24 -79 26 -122 7z m89 -40 c34 -14 76 -59 76 -82 0 -20 -37 -17 -87 7 -45 22
-68 51 -59 75 7 18 28 18 70 0z m-83 -60 c22 -28 95 -66 127 -66 l21 0 -18
-53 c-24 -70 -34 -146 -23 -176 8 -23 11 -21 97 58 49 44 93 81 97 81 4 0 8
-8 8 -18 0 -26 55 -99 90 -121 l29 -17 -44 -44 c-59 -58 -63 -74 -28 -104 26
-23 27 -25 8 -31 -11 -4 -55 -20 -97 -37 -89 -34 -118 -29 -118 22 0 56 -76
54 -193 -5 -152 -75 -260 -180 -227 -220 7 -8 20 -15 30 -15 21 0 32 -34 20
-64 -4 -11 -21 -33 -36 -47 -44 -41 -315 -217 -346 -224 -25 -6 -27 -4 -34 31
-11 58 4 252 25 336 24 93 56 158 129 263 31 44 62 96 69 115 17 48 16 113 -2
157 -18 44 -19 43 1 43 28 0 82 30 116 65 18 19 36 31 40 29 15 -9 66 -119 88
-187 12 -37 26 -67 30 -67 5 0 14 19 20 43 24 92 89 277 97 277 3 0 14 -11 24
-24z m-296 -7 c15 -24 -87 -99 -135 -99 -16 0 -21 5 -18 21 4 26 40 55 94 74
48 17 51 18 59 4z m-390 -129 c10 -17 -92 -116 -154 -149 -106 -56 -132 -34
-56 48 70 75 190 133 210 101z m1105 -52 c30 -42 39 -81 20 -93 -6 -4 -31 13
-55 37 -47 48 -67 95 -44 108 19 12 45 -5 79 -52z m-1037 -55 c19 -43 45 -111
57 -151 20 -66 21 -75 7 -90 -29 -32 -86 -167 -103 -242 -10 -47 -17 -132 -19
-229 l-2 -154 -37 -19 c-90 -46 -234 -210 -301 -345 l-34 -65 -13 43 c-8 27
-12 93 -12 169 1 151 21 253 97 495 79 248 90 333 61 458 -5 21 -3 27 10 27
46 0 207 110 228 156 6 13 14 24 18 24 4 0 23 -35 43 -77z m1360 -245 c-25
-73 5 -218 57 -273 l22 -23 -64 -32 c-87 -44 -141 -86 -224 -172 -133 -139
-213 -302 -222 -453 -3 -61 2 -111 22 -207 28 -137 33 -253 15 -340 -19 -90
-80 -207 -144 -276 -32 -34 -55 -65 -52 -68 13 -13 49 10 91 57 145 161 186
355 132 622 -14 71 -26 148 -26 172 l0 44 48 -25 c57 -29 121 -33 238 -14 100
16 134 6 160 -48 37 -78 -7 -367 -86 -568 -99 -250 -269 -495 -415 -599 -132
-94 -311 -154 -421 -140 -178 22 -510 305 -714 610 -162 241 -226 416 -202
553 29 164 153 360 295 468 86 65 131 84 203 84 131 0 287 -124 369 -294 43
-90 75 -204 75 -268 0 -18 5 -40 10 -48 19 -29 31 10 24 79 -9 95 -30 167 -73
256 -68 137 -206 269 -317 301 -30 8 -54 17 -54 19 0 2 46 31 103 66 196 120
227 150 227 221 0 18 -10 49 -21 68 l-21 35 45 41 c25 22 88 63 141 89 l95 48
55 -46 c30 -26 62 -47 71 -47 9 0 67 20 128 44 138 54 322 101 408 105 l37 1
-15 -42z m106 8 c31 -33 51 -107 51 -185 0 -77 -8 -94 -41 -89 -53 7 -103 169
-80 256 14 49 36 55 70 18z m-172 -471 c57 -40 117 -177 129 -294 9 -93 -11
-205 -35 -195 -35 15 -73 15 -160 0 -67 -11 -104 -13 -141 -6 -52 10 -104 33
-115 50 -10 17 42 150 92 233 46 77 177 227 198 227 6 0 20 -7 32 -15z"/>
<path d="M865 2969 c-27 -22 -70 -51 -95 -64 -25 -13 -40 -24 -34 -25 17 0
127 69 159 101 41 40 30 36 -30 -12z"/>
<path d="M930 2925 c-28 -34 -94 -79 -148 -101 -31 -13 -48 -24 -36 -24 46 0
222 115 203 134 -3 4 -12 -1 -19 -9z"/>
<path d="M950 2844 c-25 -29 -104 -78 -165 -102 -45 -17 -51 -21 -25 -17 71
11 229 110 208 130 -3 3 -11 -2 -18 -11z"/>
<path d="M880 2695 c-30 -19 -76 -39 -102 -46 -27 -7 -48 -16 -48 -20 0 -21
173 53 199 85 18 21 15 20 -49 -19z"/>
<path d="M848 2579 c-10 -5 -50 -18 -90 -28 -40 -11 -64 -20 -53 -20 29 -1
115 23 150 42 17 9 26 16 20 16 -5 0 -18 -4 -27 -10z"/>
<path d="M810 2474 c-19 -9 -62 -22 -95 -30 l-60 -14 55 6 c30 3 78 16 105 29
55 26 51 33 -5 9z"/>
<path d="M800 2388 c-14 -5 -59 -16 -100 -23 -46 -8 -62 -13 -42 -14 41 -1
170 27 177 40 8 11 -3 11 -35 -3z"/>
<path d="M775 2289 c-16 -5 -55 -9 -86 -10 -60 -2 -109 -19 -54 -19 51 0 169
20 179 30 12 12 2 12 -39 -1z"/>
<path d="M767 2194 c-3 -3 -48 -9 -99 -14 l-93 -7 75 -1 c41 0 93 5 115 13 22
7 33 13 24 14 -9 1 -18 -2 -22 -5z"/>
<path d="M625 2070 l-70 -6 67 -2 c37 -1 70 3 73 8 3 6 5 9 3 8 -2 -1 -34 -4
-73 -8z"/>
<path d="M2223 2195 c-62 -34 -109 -73 -129 -103 -13 -20 -6 -16 32 17 27 23
69 55 94 69 55 31 54 31 49 37 -3 2 -24 -7 -46 -20z"/>
<path d="M2250 2114 c-54 -30 -146 -118 -167 -159 -10 -19 10 -2 52 43 38 41
93 87 122 104 29 16 53 32 53 34 0 9 -17 3 -60 -22z"/>
<path d="M2289 2040 c-40 -21 -159 -144 -158 -163 0 -7 10 1 22 18 35 47 102
109 141 130 20 11 36 23 36 27 0 10 1 11 -41 -12z"/>
<path d="M2292 1941 c-39 -29 -57 -49 -51 -56 2 -2 27 17 54 41 58 50 56 57
-3 15z"/>
</g>
</svg>
