<?xml version="1.0" standalone="no"?>
<!DOCTYPE svg PUBLIC "-//W3C//DTD SVG 20010904//EN"
 "http://www.w3.org/TR/2001/REC-SVG-20010904/DTD/svg10.dtd">
<svg version="1.0" xmlns="http://www.w3.org/2000/svg"
 width="1280.000000pt" height="861.000000pt" viewBox="0 0 1280.000000 861.000000"
 preserveAspectRatio="xMidYMid meet">
<metadata>
Created by potrace 1.15, written by Peter Selinger 2001-2017
</metadata>
<g transform="translate(0.000000,861.000000) scale(0.100000,-0.100000)"
fill="#4f95e6" stroke="none">
<path d="M2165 8591 c-48 -22 -69 -44 -90 -94 -13 -32 -15 -206 -15 -1506 0
-1462 0 -1471 -21 -1526 -32 -85 -79 -146 -135 -175 -94 -49 -246 -27 -318 46
-37 38 -58 81 -120 244 -90 237 -159 330 -285 393 -57 28 -77 32 -166 35 -118
5 -205 -14 -349 -74 -71 -30 -103 -51 -158 -103 -188 -177 -350 -485 -424
-806 -25 -111 -62 -340 -75 -465 -21 -206 6 -534 61 -749 87 -342 254 -644
445 -802 126 -105 395 -179 541 -149 188 39 282 142 390 431 62 165 85 208
133 252 50 45 104 60 202 55 67 -3 83 -7 121 -33 54 -39 93 -97 127 -188 l26
-72 5 -1465 c6 -1648 -2 -1502 82 -1558 l42 -27 1445 0 c1363 0 1451 1 1531
18 231 50 410 164 505 322 59 98 80 181 79 315 -1 190 -54 331 -170 445 -77
76 -158 123 -309 181 -158 61 -226 91 -247 111 -26 23 -23 89 9 186 23 69 35
90 78 131 63 61 192 147 287 190 381 172 844 201 1348 82 233 -55 445 -158
577 -280 71 -65 110 -148 120 -251 5 -58 4 -63 -21 -82 -27 -22 -82 -46 -257
-113 -277 -106 -409 -247 -455 -488 -68 -355 120 -640 492 -747 l89 -25 1510
2 c1690 3 1542 -4 1602 75 l28 36 5 1496 c5 1405 6 1499 23 1541 61 152 133
210 265 210 91 0 153 -22 196 -70 44 -49 63 -87 116 -230 23 -63 55 -142 71
-175 134 -274 368 -338 724 -197 77 31 100 46 169 111 103 99 183 208 255 351
110 215 158 374 213 696 29 172 32 208 32 404 0 123 -5 249 -12 295 -56 354
-151 626 -297 844 -28 41 -87 114 -132 162 -92 97 -160 138 -303 185 -75 25
-100 28 -215 28 -127 1 -132 0 -197 -32 -75 -37 -156 -117 -200 -199 -15 -28
-50 -110 -78 -183 -85 -224 -124 -282 -210 -308 -162 -50 -281 -1 -350 144
-59 123 -57 75 -64 1617 -6 1382 -7 1419 -26 1457 -23 45 -58 74 -105 90 -46
15 -2878 -4 -2975 -20 -90 -15 -233 -64 -310 -107 -97 -54 -209 -170 -253
-263 -44 -94 -57 -156 -57 -273 1 -190 54 -330 169 -445 80 -79 172 -131 361
-202 159 -61 185 -74 206 -105 20 -31 13 -89 -23 -187 -21 -56 -37 -78 -88
-126 -287 -269 -850 -395 -1375 -308 -91 16 -202 37 -248 48 -244 57 -485 179
-603 305 -42 44 -74 119 -91 209 -10 58 -10 65 8 85 25 28 74 52 191 94 307
111 445 229 515 440 20 60 23 90 23 215 0 155 -5 180 -57 285 -87 174 -266
295 -513 346 -85 18 -163 19 -1535 19 -1381 0 -1447 -1 -1485 -19z m3042 -374
c137 -55 193 -127 195 -251 2 -172 -52 -230 -292 -317 -302 -110 -415 -212
-450 -407 -19 -107 14 -271 85 -429 65 -141 246 -292 496 -412 188 -91 328
-133 614 -183 204 -36 491 -48 677 -29 435 45 816 201 1066 436 90 84 133 157
176 294 74 235 49 401 -81 529 -69 68 -136 105 -304 168 -256 96 -296 131
-319 271 -25 149 41 246 209 310 99 37 209 41 1578 48 l1221 6 2 -1312 c1
-1109 3 -1325 16 -1398 56 -328 236 -550 494 -611 74 -18 229 -16 314 4 113
27 192 71 277 156 87 87 132 166 209 371 59 154 81 195 114 203 33 8 111 -8
190 -40 57 -23 76 -37 124 -94 144 -172 242 -403 294 -695 17 -97 22 -161 22
-330 0 -186 -3 -227 -27 -363 -35 -194 -50 -259 -86 -370 -69 -209 -217 -444
-310 -491 -52 -27 -168 -61 -206 -61 -50 0 -77 42 -139 214 -98 270 -198 402
-361 477 -124 56 -312 75 -444 44 -185 -44 -345 -191 -427 -393 -63 -157 -59
-39 -62 -1565 l-2 -1387 -1393 2 -1392 3 -69 33 c-119 56 -166 125 -166 243 0
143 56 214 217 277 43 17 121 47 173 68 234 91 342 215 357 410 10 124 -54
351 -128 461 -40 57 -159 164 -254 228 -256 170 -569 268 -1039 326 -227 28
-600 -7 -856 -80 -365 -103 -700 -327 -791 -527 -64 -142 -82 -218 -83 -349
-1 -115 0 -123 31 -188 62 -130 163 -203 401 -291 210 -77 267 -119 297 -218
44 -150 -9 -271 -149 -337 -131 -63 -86 -61 -1510 -61 l-1296 0 -2 1358 -3
1357 -26 96 c-98 352 -314 539 -624 539 -269 0 -461 -118 -574 -352 -28 -57
-66 -146 -85 -199 -39 -111 -68 -170 -90 -189 -22 -17 -94 -8 -188 24 -61 21
-82 34 -127 83 -221 235 -355 682 -338 1123 5 136 41 378 78 522 82 324 247
592 398 647 83 30 156 42 186 31 30 -11 49 -48 110 -210 72 -190 119 -274 200
-356 105 -107 212 -156 380 -173 318 -32 549 126 673 462 l27 72 3 1403 2
1402 1358 -2 1357 -3 72 -28z"/>
</g>
</svg>
