<?xml version="1.0" standalone="no"?>
<!DOCTYPE svg PUBLIC "-//W3C//DTD SVG 20010904//EN"
 "http://www.w3.org/TR/2001/REC-SVG-20010904/DTD/svg10.dtd">
<svg version="1.0" xmlns="http://www.w3.org/2000/svg"
 width="962.000000pt" height="1280.000000pt" viewBox="0 0 962.000000 1280.000000"
 preserveAspectRatio="xMidYMid meet">
<metadata>
Created by potrace 1.15, written by Peter Selinger 2001-2017
</metadata>
<g transform="translate(0.000000,1280.000000) scale(0.100000,-0.100000)"
fill="#4f95e6" stroke="none">
<path d="M4773 12773 c-23 -16 -109 -92 -192 -170 l-152 -142 -142 6 c-196 8
-235 -3 -334 -100 -83 -81 -113 -134 -144 -256 -26 -106 -38 -130 -107 -211
-85 -100 -107 -155 -107 -270 0 -84 3 -102 28 -153 34 -68 106 -142 175 -180
42 -23 67 -28 156 -34 58 -3 106 -9 106 -13 0 -19 -104 -100 -177 -138 -93
-48 -192 -76 -306 -87 -76 -7 -79 -6 -73 13 4 11 7 53 8 94 1 93 -15 124 -87
176 -45 33 -67 41 -119 47 -100 10 -140 -5 -216 -83 -73 -74 -100 -122 -100
-176 0 -20 -3 -36 -6 -36 -4 0 -36 15 -73 33 -62 30 -73 32 -194 36 -70 1
-142 0 -160 -3 -18 -3 -61 -29 -96 -57 -48 -39 -70 -66 -92 -112 -34 -73 -28
-91 39 -111 52 -16 49 -18 -51 -41 -84 -19 -112 -33 -159 -82 -43 -44 -68 -98
-68 -147 0 -61 15 -84 73 -110 54 -24 80 -46 55 -46 -87 -3 -214 -22 -250 -38
-65 -28 -101 -80 -106 -151 -4 -62 -5 -61 77 -127 33 -28 33 -28 29 -96 -7
-92 -51 -180 -122 -245 -33 -30 -102 -73 -187 -116 -162 -81 -468 -258 -599
-346 -127 -85 -271 -232 -328 -333 -77 -136 -96 -204 -100 -358 -3 -99 0 -153
12 -203 18 -79 77 -211 108 -244 28 -30 20 -37 -72 -58 -200 -47 -384 -178
-510 -364 -70 -105 -148 -281 -171 -389 -33 -153 -38 -502 -10 -699 39 -265
107 -500 273 -938 44 -115 104 -275 134 -354 70 -184 84 -238 84 -328 0 -80 0
-80 -63 -62 -33 9 -41 18 -61 64 -33 72 -53 82 -113 53 -53 -25 -87 -69 -104
-132 -14 -52 -6 -194 16 -263 22 -72 99 -172 152 -197 45 -23 56 -46 22 -46
-30 0 -174 -80 -228 -126 -24 -21 -66 -72 -93 -112 -48 -74 -48 -75 -48 -157
0 -66 4 -87 19 -106 17 -21 22 -22 57 -12 91 26 208 33 227 14 4 -5 -2 -21
-15 -37 -13 -16 -40 -54 -59 -84 -33 -53 -34 -58 -34 -155 l0 -100 90 -5 c131
-8 141 -17 176 -142 25 -90 65 -149 118 -172 58 -27 82 -16 122 51 41 70 89
99 174 108 111 12 249 -26 389 -109 84 -49 227 -187 286 -275 49 -74 131 -245
154 -322 26 -86 16 -166 -13 -103 -17 39 -122 84 -195 84 -95 0 -133 -16 -208
-90 -81 -80 -93 -115 -85 -243 4 -63 13 -103 31 -142 48 -106 181 -207 307
-235 55 -12 200 -10 230 4 13 6 15 -11 15 -141 -1 -145 0 -149 30 -213 41 -88
83 -133 156 -170 56 -27 70 -30 162 -30 148 0 215 25 263 100 46 71 49 74 85
73 48 -1 112 -36 186 -100 46 -41 118 -133 271 -347 403 -563 506 -669 786
-807 149 -73 278 -108 436 -118 104 -6 121 -10 158 -34 41 -27 114 -47 175
-47 62 0 109 -21 166 -75 60 -58 93 -75 143 -75 57 0 103 19 178 74 73 54 101
64 227 81 42 5 73 17 136 52 18 10 82 21 168 29 161 15 260 40 374 94 217 101
381 241 601 512 58 70 190 258 238 335 19 32 157 208 213 274 73 84 121 123
177 145 58 22 89 10 137 -54 53 -72 122 -105 229 -110 161 -8 257 42 323 167
20 39 43 92 51 118 17 54 20 179 6 216 l-9 24 101 6 c294 18 447 158 447 407
0 86 -21 156 -65 214 -48 62 -102 88 -193 94 -63 4 -83 1 -143 -23 -48 -19
-74 -35 -84 -53 -13 -25 -14 -23 -9 38 15 171 107 349 265 511 173 177 310
241 514 241 55 0 114 -6 130 -12 39 -15 81 -55 108 -103 12 -21 31 -40 44 -43
72 -18 174 96 188 210 5 38 15 67 30 84 21 24 30 26 118 30 65 3 100 9 108 18
7 9 10 38 7 76 -5 73 -65 229 -99 259 -12 10 -19 22 -15 26 8 9 94 5 184 -8
104 -15 112 -6 112 116 0 90 -1 93 -38 151 -51 78 -119 139 -220 198 l-84 49
34 26 c78 60 124 135 154 253 43 165 -35 344 -146 336 -30 -3 -38 -9 -60 -52
-32 -60 -53 -76 -101 -76 -41 0 -49 11 -49 70 0 62 41 186 171 515 191 486
280 766 323 1018 83 474 15 891 -192 1182 -143 202 -342 331 -542 352 -33 3
-60 9 -60 13 0 4 18 25 39 48 48 50 92 140 122 247 18 68 21 96 16 204 -2 71
-12 152 -21 186 -29 105 -99 234 -173 319 -37 43 -73 87 -80 99 -6 11 -40 40
-75 64 -73 52 -455 281 -673 403 -185 105 -265 176 -289 259 -29 99 -14 182
38 216 30 20 49 73 40 111 -19 81 -75 139 -154 162 -55 16 -154 22 -189 12
-51 -14 -34 10 31 45 83 45 88 51 88 106 0 56 -11 90 -47 142 -33 47 -94 79
-196 103 -76 18 -101 34 -52 34 29 0 65 32 65 58 0 10 -12 41 -26 70 -47 95
-153 155 -299 170 -78 8 -98 7 -148 -10 -32 -10 -77 -30 -99 -44 -43 -27 -57
-22 -58 19 0 27 -54 129 -85 159 -15 15 -48 41 -73 58 -42 28 -52 30 -138 30
l-92 0 -50 -45 c-67 -60 -85 -109 -81 -212 l4 -78 -100 7 c-122 8 -175 27
-314 111 -99 60 -133 89 -120 102 4 3 48 12 98 20 121 20 150 33 222 102 70
67 102 123 119 211 22 112 -11 219 -108 346 -43 56 -53 77 -71 158 -12 51 -32
116 -46 143 -37 77 -113 154 -202 207 -117 70 -209 80 -361 39 l-40 -11 -144
144 c-138 138 -218 206 -243 206 -7 0 -30 -12 -52 -27z m274 -1993 c251 -21
516 -76 742 -155 144 -50 339 -129 423 -170 39 -19 74 -35 79 -35 16 0 154
-99 197 -141 24 -23 79 -90 124 -148 98 -130 476 -507 714 -713 93 -81 190
-172 216 -202 161 -184 334 -497 533 -961 104 -243 118 -287 236 -725 124
-458 182 -928 182 -1460 -1 -629 -68 -1090 -249 -1709 -80 -275 -127 -363
-367 -693 -169 -233 -158 -216 -185 -278 -11 -25 -50 -106 -85 -181 -36 -75
-90 -198 -121 -272 -30 -75 -76 -167 -101 -206 -113 -171 -355 -420 -631 -648
-181 -150 -188 -155 -344 -245 -276 -160 -621 -302 -890 -367 -214 -52 -382
-70 -705 -78 -352 -8 -475 7 -800 99 -394 111 -815 331 -1156 605 -149 120
-516 471 -590 563 -65 83 -94 141 -157 315 -86 241 -167 389 -373 687 -71 103
-150 223 -174 268 -203 366 -373 1039 -424 1675 -25 314 -34 593 -22 727 65
733 198 1309 444 1929 92 231 185 428 327 694 68 127 128 239 134 251 5 12 22
28 36 36 26 15 190 155 360 307 257 228 530 502 678 679 145 174 703 417 1187
517 199 42 507 55 762 35z m3660 -1686 c-3 -3 -12 -4 -19 -1 -8 3 -5 6 6 6 11
1 17 -2 13 -5z m-369 -950 c20 -9 82 -20 137 -24 l100 -7 -87 -1 c-83 -2 -168
15 -192 39 -15 14 0 11 42 -7z m322 -4 c-8 -5 -19 -10 -25 -10 -5 0 -3 5 5 10
8 5 20 10 25 10 6 0 3 -5 -5 -10z m-47 -17 c-7 -2 -19 -2 -25 0 -7 3 -2 5 12
5 14 0 19 -2 13 -5z"/>
<path d="M4590 10619 c-456 -42 -831 -176 -1284 -459 -152 -95 -181 -117 -298
-235 -301 -302 -360 -366 -443 -470 -48 -60 -91 -112 -97 -113 -30 -12 -323
-495 -436 -720 -104 -205 -238 -519 -316 -737 -76 -216 -154 -551 -197 -852
-31 -213 -86 -773 -77 -773 4 0 8 5 8 10 0 6 5 10 10 10 6 0 15 -20 22 -45 9
-32 15 -42 24 -34 9 7 13 1 17 -23 20 -113 27 -188 37 -398 27 -584 111 -1033
297 -1595 119 -362 195 -534 359 -812 349 -592 639 -928 1069 -1240 264 -191
359 -243 635 -346 325 -122 453 -146 795 -154 265 -6 412 4 587 38 478 95 966
362 1404 771 173 160 273 278 435 513 138 199 195 292 291 470 256 476 416
928 527 1480 99 494 101 511 107 995 3 212 10 410 16 440 l11 55 13 -35 c7
-19 13 -29 13 -22 1 17 21 15 21 -3 0 -8 9 -19 20 -25 25 -14 25 -20 0 235
-40 412 -56 529 -109 780 -21 99 -48 232 -60 295 -39 205 -182 604 -321 895
-144 303 -421 748 -573 922 -23 26 -59 73 -80 104 -34 51 -107 124 -327 327
-227 209 -621 456 -900 565 -413 162 -804 222 -1200 186z m559 -534 c126 -18
300 -61 440 -109 124 -43 347 -142 377 -168 11 -10 24 -18 28 -18 13 0 208
-143 326 -239 139 -113 394 -370 500 -504 188 -238 339 -475 471 -738 114
-225 125 -252 188 -449 136 -427 181 -607 240 -955 58 -340 56 -313 54 -871
l-2 -520 -41 -245 c-82 -482 -175 -821 -336 -1224 -58 -146 -229 -487 -306
-610 -93 -149 -296 -438 -331 -470 -18 -16 -52 -55 -75 -87 -81 -107 -378
-357 -587 -494 -235 -154 -488 -266 -730 -325 -312 -75 -789 -86 -1027 -25
-144 38 -434 134 -516 171 -92 43 -386 237 -522 345 -233 186 -531 523 -715
810 -243 378 -309 512 -431 871 -204 602 -281 1017 -314 1677 -14 278 -13 397
5 559 22 195 60 456 90 608 43 220 196 803 228 869 9 17 46 98 84 181 70 154
153 308 331 615 89 153 118 194 239 330 227 257 435 453 618 585 177 127 424
269 548 315 124 46 392 106 567 126 143 16 454 11 599 -11z"/>
</g>
</svg>
