<?xml version="1.0" standalone="no"?>
<!DOCTYPE svg PUBLIC "-//W3C//DTD SVG 20010904//EN"
 "http://www.w3.org/TR/2001/REC-SVG-20010904/DTD/svg10.dtd">
<svg version="1.0" xmlns="http://www.w3.org/2000/svg"
 width="969.000000pt" height="1280.000000pt" viewBox="0 0 969.000000 1280.000000"
 preserveAspectRatio="xMidYMid meet">
<metadata>
Created by potrace 1.15, written by Peter Selinger 2001-2017
</metadata>
<g transform="translate(0.000000,1280.000000) scale(0.100000,-0.100000)"
fill="#4f95e6" stroke="none">
<path d="M5105 12786 c-98 -24 -139 -58 -151 -125 -5 -27 -3 -37 11 -48 18
-13 18 -13 0 -27 -17 -12 -18 -17 -7 -40 19 -42 14 -42 -16 0 -91 125 -193
165 -344 133 -55 -12 -148 -56 -148 -71 0 -4 -14 -8 -30 -8 -38 0 -85 -23 -94
-47 -12 -31 36 -140 101 -228 34 -47 63 -87 63 -90 0 -2 -19 7 -42 21 -60 34
-161 64 -217 64 -95 -1 -210 -45 -308 -120 -47 -35 -53 -37 -94 -30 -52 10
-124 -2 -177 -29 -84 -43 -170 -120 -172 -155 0 -9 63 -2 97 11 16 6 16 5 4
-10 -11 -14 -13 -39 -8 -112 3 -52 3 -95 0 -95 -3 0 -22 15 -43 34 -88 80
-204 122 -304 112 -103 -10 -266 -105 -266 -155 0 -15 10 -23 43 -32 74 -20
118 -35 304 -108 267 -103 380 -171 434 -258 19 -30 19 -35 5 -78 -33 -96 -7
-196 63 -242 98 -66 204 18 205 162 1 110 -67 192 -153 183 l-39 -3 -52 95
c-64 118 -98 227 -110 350 -4 52 -11 102 -15 111 -3 10 -2 20 4 24 8 4 8 12 1
25 -12 23 4 30 69 30 81 0 237 -64 321 -131 59 -48 107 -125 151 -242 33 -90
35 -102 21 -116 -29 -29 -52 -95 -52 -151 0 -162 171 -242 249 -117 35 57 46
130 27 187 -9 27 -16 56 -16 65 0 35 -65 180 -111 250 -47 70 -223 249 -301
306 -36 25 -37 27 -15 33 12 4 60 9 107 12 148 11 335 -53 399 -135 38 -48 46
-66 87 -178 31 -85 33 -100 23 -130 -6 -19 -9 -63 -7 -98 3 -49 10 -70 31 -99
101 -132 258 -42 244 140 -4 63 -60 210 -118 313 -18 32 -25 50 -15 42 9 -8
19 -11 23 -7 4 3 -4 14 -18 23 -13 10 -40 33 -59 53 -111 115 -113 118 -106
144 3 14 13 26 21 26 24 0 12 47 -43 164 -29 60 -52 110 -52 112 0 1 25 8 55
14 67 14 131 10 127 -8 -2 -14 1 -15 66 -32 83 -21 190 -152 238 -290 23 -66
27 -99 35 -270 4 -107 8 -196 9 -197 0 0 15 -10 33 -22 17 -11 46 -30 62 -41
17 -11 47 -20 67 -20 110 0 177 184 108 295 -24 38 -77 75 -108 75 -18 0 -26
15 -53 103 -17 56 -40 120 -51 142 -11 22 -30 64 -43 92 l-24 53 25 -17 c22
-14 27 -14 40 -2 12 13 11 28 -12 121 -33 132 -30 151 31 168 43 12 48 11 109
-19 117 -57 213 -185 291 -389 l28 -73 -23 -40 c-34 -62 -38 -151 -8 -209 58
-113 182 -119 237 -12 41 81 35 173 -15 239 -14 18 -31 50 -38 71 -44 125
-217 395 -299 467 -66 58 -159 105 -206 104 -20 0 -58 -6 -86 -13z"/>
<path d="M6604 12750 c4 -14 11 -50 16 -80 5 -30 36 -181 70 -335 128 -589
229 -1083 236 -1160 3 -44 15 -108 25 -142 11 -34 19 -74 18 -90 -1 -15 25
-98 59 -183 121 -311 961 -2473 1214 -3125 143 -368 372 -958 509 -1309 136
-352 256 -648 266 -658 24 -24 129 -26 202 -4 30 9 95 23 144 32 150 26 207
65 207 141 0 37 6 53 26 74 15 15 27 40 28 56 1 15 4 33 7 38 3 6 -98 278
-226 605 -127 327 -356 915 -507 1305 -152 391 -477 1228 -723 1860 -246 633
-474 1220 -507 1305 -42 112 -68 165 -92 190 -48 50 -549 824 -554 855 -4 27
-109 187 -161 246 -32 37 -79 102 -105 145 -107 179 -158 258 -152 234z m726
-1650 c-8 -5 -17 -7 -19 -4 -3 3 1 9 9 14 8 5 17 7 19 4 3 -3 -1 -9 -9 -14z
m-205 -90 c-3 -5 -12 -10 -18 -10 -7 0 -6 4 3 10 19 12 23 12 15 0z"/>
<path d="M5890 12367 c0 -11 49 -107 55 -107 3 0 5 10 5 23 0 20 -59 103 -60
84z"/>
<path d="M5943 12183 c3 -38 16 -104 27 -148 27 -102 140 -351 219 -483 88
-148 108 -190 219 -469 94 -236 131 -319 132 -300 0 4 -56 150 -124 325 -68
174 -167 430 -220 567 -79 206 -147 368 -231 552 -19 42 -28 24 -22 -44z"/>
<path d="M2738 11660 c-72 -9 -123 -46 -151 -108 -21 -50 -23 -32 20 -220 6
-24 5 -24 -48 6 -139 78 -270 93 -374 43 -64 -30 -117 -77 -141 -123 -14 -26
-18 -28 -80 -28 -98 0 -284 -61 -298 -97 -12 -30 5 -36 88 -28 45 4 90 7 102
6 25 -1 252 -93 313 -127 59 -33 154 -114 222 -192 l56 -63 -24 -46 c-47 -93
-22 -208 56 -260 96 -65 204 23 205 166 0 77 -25 127 -85 164 -26 16 -53 42
-59 57 -7 16 -22 42 -33 57 -33 44 -274 261 -318 286 -21 12 -39 25 -39 29 0
4 19 12 43 19 55 15 202 -2 290 -34 108 -39 253 -143 334 -239 29 -35 31 -41
26 -97 -3 -32 -3 -75 1 -95 9 -48 70 -111 120 -125 45 -12 86 -5 86 14 0 7 7
19 17 26 54 45 71 185 30 252 -24 39 -71 77 -97 77 -8 0 -26 16 -39 35 -37 55
-140 152 -207 196 -58 37 -62 43 -72 91 -12 64 -6 82 48 136 48 48 75 52 152
24 104 -37 168 -119 272 -345 29 -64 68 -133 85 -153 18 -19 39 -53 47 -75 11
-25 23 -39 34 -39 10 0 20 -5 22 -11 2 -6 34 -13 71 -16 68 -4 68 -4 106 34
79 79 81 212 6 288 -58 57 -144 56 -182 -2 -19 -29 -26 -23 -48 46 -19 58
-108 198 -174 273 -62 70 -210 184 -256 197 -43 12 -43 12 -127 1z"/>
<path d="M5965 11022 c-165 -81 -392 -192 -505 -246 -113 -55 -437 -212 -720
-349 -708 -343 -899 -433 -1320 -627 -363 -166 -472 -219 -457 -220 4 0 26 9
48 21 23 11 43 19 45 16 2 -2 -128 -67 -288 -145 -161 -77 -392 -189 -513
-248 -121 -58 -326 -157 -455 -219 -487 -234 -670 -324 -670 -329 0 -9 96 36
785 364 293 139 1496 710 2430 1152 209 99 459 216 555 260 96 44 198 92 225
107 28 16 296 144 597 287 500 236 548 261 558 288 5 16 10 31 10 32 0 12 -56
-13 -325 -144z m-2830 -1372 c-3 -5 -12 -10 -18 -10 -7 0 -6 4 3 10 19 12 23
12 15 0z"/>
<path d="M1398 11061 c-52 -17 -208 -105 -238 -134 -17 -17 -29 -37 -28 -46 6
-31 83 -59 243 -91 256 -50 315 -66 400 -112 101 -55 210 -159 200 -191 -29
-96 -29 -140 2 -205 20 -42 78 -82 119 -82 24 0 38 -8 58 -35 15 -19 31 -35
35 -35 4 0 4 23 0 52 -7 40 -5 56 6 68 25 28 45 88 45 138 0 89 -70 181 -139
182 -20 1 -36 15 -69 58 -78 103 -262 300 -325 348 -34 26 -82 56 -107 66 -50
22 -160 32 -202 19z"/>
<path d="M837 10775 c-144 -56 -187 -78 -187 -96 0 -7 -10 -9 -27 -4 -90 22
-239 -10 -292 -63 -23 -23 -33 -25 -112 -26 -100 -1 -129 -17 -129 -70 0 -17
-7 -65 -16 -106 -20 -92 -15 -266 9 -323 9 -21 34 -64 56 -95 21 -31 42 -73
46 -92 20 -95 96 -210 140 -210 12 0 29 10 37 22 14 21 11 27 -44 102 -33 44
-68 97 -79 118 -25 49 -103 516 -89 533 5 6 29 21 53 33 58 29 96 21 140 -27
48 -54 141 -244 162 -331 23 -99 68 -197 110 -240 l34 -35 -15 -45 c-59 -168
115 -329 222 -206 77 88 69 228 -16 300 -28 23 -41 27 -84 25 -48 -3 -51 -1
-54 21 -5 42 -53 192 -77 245 -13 28 -44 100 -70 162 -35 86 -56 120 -86 147
l-39 36 38 0 c102 0 325 -93 418 -174 28 -25 64 -70 81 -103 43 -80 93 -247
93 -307 0 -125 108 -219 198 -172 64 33 105 150 82 234 -27 103 -137 160 -201
105 -15 -13 -22 -4 -70 86 -56 105 -186 279 -257 344 -23 20 -38 37 -32 37 5
0 51 -13 102 -29 51 -16 138 -42 193 -56 109 -30 131 -38 251 -96 55 -27 98
-58 139 -99 l58 -59 -2 -75 c-2 -63 2 -83 21 -117 28 -51 74 -79 126 -79 34 0
48 6 76 34 44 45 59 92 54 171 -3 49 -10 70 -31 99 -51 66 -121 84 -171 45
-15 -12 -29 -20 -30 -18 -2 2 -27 43 -55 91 -39 67 -84 120 -189 226 -215 218
-252 228 -485 137z"/>
<path d="M6115 10233 c-220 -107 -807 -392 -1305 -633 -498 -241 -1130 -547
-1405 -680 -275 -134 -563 -273 -640 -310 -812 -391 -1372 -663 -1380 -671
-17 -18 83 29 780 361 176 84 788 374 1360 645 572 271 1436 681 1920 910 484
229 889 421 901 425 19 8 22 3 32 -41 6 -26 39 -119 73 -206 65 -168 140 -376
136 -379 -5 -3 -1713 -834 -1952 -949 -71 -34 -420 -203 -775 -375 -355 -172
-915 -443 -1245 -602 -330 -160 -655 -317 -723 -350 -68 -33 -122 -62 -119
-64 2 -3 281 126 618 287 338 160 1039 493 1559 739 520 246 1294 613 1720
815 426 202 812 385 857 406 l83 38 71 -222 c39 -122 92 -275 116 -341 25 -65
41 -122 36 -126 -4 -4 -465 -228 -1023 -498 -558 -270 -1319 -637 -1690 -817
-704 -341 -1725 -835 -1988 -961 -83 -40 -152 -76 -152 -78 0 -9 29 4 555 254
1850 879 4323 2050 4329 2050 2 0 44 -82 94 -182 50 -101 122 -233 160 -294
l69 -112 -621 -300 c-341 -165 -1069 -517 -1616 -782 -848 -411 -1977 -957
-2617 -1266 -95 -46 -173 -86 -173 -88 0 -9 50 14 565 259 344 164 1900 901
3461 1641 562 266 1024 484 1028 484 20 0 127 -264 186 -463 23 -76 48 -154
56 -173 l15 -35 -208 -101 c-114 -55 -352 -170 -528 -255 -400 -194 -1477
-712 -1935 -930 -190 -91 -547 -265 -795 -388 -247 -123 -623 -306 -835 -408
-663 -318 -760 -366 -760 -371 0 -9 28 4 660 304 566 269 1320 627 3567 1691
463 220 846 399 852 399 6 0 11 -4 11 -10 0 -5 58 -135 128 -287 139 -300 177
-391 170 -399 -5 -4 -1287 -627 -1603 -779 -60 -29 -540 -260 -1065 -515 -525
-254 -1223 -592 -1550 -750 -800 -386 -852 -412 -847 -417 4 -4 229 101 912
427 176 84 361 171 410 195 50 23 776 367 1615 765 839 398 1666 790 1839 872
221 104 317 145 322 137 30 -48 241 -661 231 -670 -4 -3 -387 -189 -852 -414
-465 -225 -1070 -517 -1345 -650 -275 -133 -781 -379 -1125 -545 -344 -166
-823 -398 -1065 -515 -671 -324 -717 -347 -712 -351 4 -4 198 87 827 386 219
104 2093 992 3465 1642 418 198 776 368 796 378 l36 19 75 -242 c41 -133 77
-248 79 -255 4 -13 -215 -121 -1371 -677 -256 -123 -577 -278 -715 -345 -137
-67 -344 -169 -460 -225 -187 -91 -1216 -590 -2143 -1037 -182 -89 -331 -163
-329 -165 5 -5 75 28 742 344 330 157 1068 507 1640 778 572 271 1402 664
1844 874 442 210 807 381 811 381 4 0 11 -12 14 -26 4 -14 34 -89 67 -166 33
-77 80 -198 104 -268 24 -70 52 -145 62 -167 l20 -40 -731 -353 c-402 -195
-1008 -488 -1346 -651 -338 -163 -797 -385 -1020 -494 -223 -109 -450 -219
-505 -245 -426 -203 -1451 -702 -1459 -711 -13 -12 183 79 734 341 352 167
1451 688 3737 1772 l612 290 68 -73 c37 -41 89 -97 116 -125 26 -28 47 -56 47
-62 0 -6 -13 -45 -30 -87 -18 -46 -39 -132 -54 -224 -29 -173 -56 -238 -142
-346 -31 -38 -77 -105 -101 -147 -25 -43 -51 -82 -57 -87 -6 -5 -63 -32 -126
-59 -63 -28 -304 -132 -535 -232 -231 -100 -553 -240 -715 -310 -162 -70 -535
-232 -828 -359 -458 -199 -1332 -582 -2062 -904 -166 -73 -248 -102 -430 -153
-124 -35 -228 -60 -231 -56 -11 11 -878 2290 -909 2386 -7 22 -85 227 -172
455 -277 722 -488 1274 -763 2001 -586 1547 -770 2034 -850 2245 -46 121 -151
398 -234 615 -82 217 -153 403 -156 413 -5 12 -13 16 -29 11 -11 -4 -22 -8
-24 -9 -1 -1 6 -25 17 -52 l19 -49 -28 -16 -29 -16 -37 111 c-20 62 -38 113
-39 115 -2 2 -217 -68 -223 -73 -4 -4 161 -504 889 -2695 909 -2735 1274
-3838 1859 -5615 88 -268 279 -853 382 -1173 11 -34 24 -62 29 -62 5 0 51 13
102 30 52 16 99 30 105 30 6 0 16 -16 22 -35 10 -30 15 -35 33 -29 12 3 27 10
32 14 21 16 651 348 675 355 51 16 208 99 300 160 77 50 1618 873 4662 2489
136 72 247 133 247 136 0 3 -6 13 -13 23 -13 17 -18 16 -94 -22 -109 -55 -627
-332 -732 -391 -122 -69 -3091 -1646 -3153 -1675 -29 -13 -104 -51 -167 -85
-63 -34 -110 -58 -105 -53 29 27 340 238 353 240 9 1 18 7 20 13 2 5 9 7 14 4
6 -4 8 -2 5 3 -9 15 563 418 628 443 14 5 79 20 145 34 109 22 126 29 200 77
77 51 109 84 53 55 -36 -18 -225 -77 -231 -72 -7 8 231 123 289 139 31 9 67
27 81 40 31 29 91 67 106 67 17 0 182 115 261 180 40 34 103 75 139 92 37 16
166 78 287 138 296 146 955 464 969 468 6 2 4 -1 -4 -7 -32 -22 2 -22 57 -1
112 45 399 181 478 226 94 55 225 146 225 157 0 5 -4 5 -10 2 -5 -3 -10 -4
-10 -1 0 3 14 12 30 21 35 18 38 30 10 45 -16 9 -52 -7 -211 -91 -106 -56
-262 -135 -348 -176 -86 -42 -262 -127 -391 -190 -253 -124 -1142 -556 -1355
-658 -71 -34 -335 -160 -585 -280 -250 -119 -518 -249 -595 -287 -358 -179
-1947 -928 -1957 -922 -10 6 -42 75 -36 78 31 19 62 25 74 15 12 -9 13 -9 9 3
-7 17 167 133 197 131 10 -1 16 2 14 6 -9 14 37 29 99 34 83 7 164 37 264 101
47 30 131 78 186 106 112 59 223 128 254 159 12 12 24 21 28 22 37 3 159 56
151 65 -3 3 -35 -9 -69 -26 l-64 -31 34 27 c29 24 32 29 16 34 -14 5 -3 12 41
30 118 47 214 101 315 177 56 42 98 78 93 80 -5 2 -68 -19 -139 -47 -71 -27
-130 -48 -132 -47 -1 2 107 54 240 116 177 83 282 125 392 158 198 59 202 60
120 17 -38 -20 -151 -85 -250 -144 -99 -59 -254 -148 -345 -198 -172 -95 -239
-137 -165 -104 184 82 709 357 880 461 59 36 61 37 104 24 25 -7 55 -23 68
-35 26 -25 24 -26 50 26 19 37 27 41 204 112 152 62 627 288 759 362 38 22
161 64 168 58 2 -2 -6 -7 -17 -11 -12 -3 -21 -10 -21 -14 0 -13 140 19 185 42
22 11 72 46 112 78 40 31 81 60 93 64 11 3 20 11 20 16 0 5 6 9 13 9 8 0 32
13 55 29 69 51 200 111 346 160 137 46 185 68 254 114 127 84 173 111 219 128
98 37 358 175 484 256 143 92 264 151 327 160 52 7 66 23 20 23 -29 0 -33 3
-34 28 -2 38 -67 202 -107 270 -75 125 -177 335 -232 474 -32 81 -60 146 -62
144 -2 -2 1 -15 7 -30 7 -20 7 -25 -2 -20 -8 5 -9 2 -5 -10 15 -37 -10 -4 -33
44 -24 51 -25 52 -61 47 l-36 -5 -28 92 c-15 50 -38 132 -51 181 -34 126 -51
168 -106 267 -66 118 -75 143 -99 261 -36 180 -69 264 -162 414 -90 145 -141
249 -209 423 -23 58 -67 161 -98 230 -32 69 -66 154 -78 190 -46 147 -82 271
-107 370 -14 58 -46 166 -70 240 -41 127 -125 421 -125 437 0 5 22 -41 48
-102 50 -115 91 -196 92 -182 1 21 -56 201 -109 349 -82 226 -97 264 -196 502
-48 114 -133 330 -190 480 -175 461 -224 581 -234 579 -20 -5 -205 415 -195
442 3 7 1 16 -4 19 -6 3 -8 15 -5 25 4 15 1 19 -14 15 -15 -4 -24 9 -50 78
-18 46 -46 130 -63 188 -17 58 -49 160 -71 227 -46 138 -32 128 -137 97 l-43
-12 6 29 c4 16 3 29 -2 28 -4 -1 -188 -89 -408 -196z m-5505 -1358 c0 -5 -5
-3 -10 5 -5 8 -10 20 -10 25 0 6 5 3 10 -5 5 -8 10 -19 10 -25z m24 -65 c5
-17 4 -20 -2 -10 -5 8 -13 26 -16 40 -5 17 -4 20 2 10 5 -8 13 -26 16 -40z
m30 -80 c5 -17 4 -20 -2 -10 -5 8 -13 26 -16 40 -5 17 -4 20 2 10 5 -8 13 -26
16 -40z m90 -235 c73 -192 85 -227 67 -195 -10 16 -151 389 -151 398 0 16 16
-23 84 -203z m96 -250 c0 -5 -5 -3 -10 5 -5 8 -10 20 -10 25 0 6 5 3 10 -5 5
-8 10 -19 10 -25z m63 -167 c9 -24 52 -137 95 -253 550 -1454 595 -1575 588
-1582 -7 -7 -706 1842 -706 1869 0 18 8 6 23 -34z m121 -506 c108 -288 199
-537 204 -555 5 -17 46 -129 90 -247 44 -118 83 -224 87 -235 12 -40 -116 217
-151 302 -55 132 -150 404 -295 841 -71 215 -132 400 -136 410 -3 9 -3 14 0
11 4 -3 94 -240 201 -527z m455 -1414 c24 -53 67 -136 98 -184 70 -112 126
-223 169 -337 38 -98 38 -101 24 -92 -5 3 -10 2 -10 -4 0 -5 4 -12 9 -16 21
-12 51 -141 75 -320 18 -134 108 -343 225 -522 33 -51 58 -93 55 -93 -3 0 -14
5 -25 10 -22 12 -24 4 -8 -37 74 -187 171 -510 214 -710 37 -171 66 -263 120
-378 18 -38 59 -142 90 -230 31 -88 89 -239 130 -335 66 -159 135 -342 135
-358 0 -4 -19 21 -42 56 -26 40 -71 143 -125 285 -118 311 -394 1071 -460
1262 -30 88 -70 196 -88 240 -61 149 -247 669 -322 900 -77 239 -302 929 -311
955 -15 42 10 -6 47 -92z m186 -108 c36 -95 64 -175 62 -177 -3 -2 -32 72 -67
164 -76 202 -75 199 -67 192 4 -3 36 -83 72 -179z m115 -305 c23 -60 52 -135
66 -168 14 -32 23 -64 21 -70 -5 -14 -10 -3 -77 183 -67 186 -64 176 -57 169
4 -3 25 -54 47 -114z m305 -805 c114 -300 209 -549 212 -555 4 -7 2 -7 -5 0
-9 9 -422 1087 -422 1103 0 17 28 -53 215 -548z m-156 216 c17 -44 29 -82 27
-84 -4 -3 -66 151 -66 164 0 15 9 -4 39 -80z m661 -1541 c0 -5 -5 -3 -10 5 -5
8 -10 20 -10 25 0 6 5 3 10 -5 5 -8 10 -19 10 -25z m6365 -13 c-42 -35 -95
-67 -171 -101 -105 -47 -98 -42 56 44 110 62 135 75 115 57z m-660 -148 c-55
-47 -103 -73 -167 -92 -83 -25 -160 -43 -164 -39 -4 4 336 155 351 156 6 0 -3
-11 -20 -25z m-5480 -420 c85 -224 153 -409 152 -411 -6 -6 -327 825 -327 844
1 20 31 -53 175 -433z m-321 25 c47 -130 86 -240 86 -245 0 -8 32 -96 159
-434 16 -41 41 -111 56 -155 16 -44 34 -96 41 -115 7 -19 51 -141 98 -270 132
-368 233 -638 266 -720 17 -41 54 -142 82 -225 28 -82 59 -166 68 -185 9 -19
27 -66 40 -105 40 -125 43 -129 80 -105 13 8 13 14 2 42 -20 49 -106 285 -228
623 -59 165 -143 395 -187 510 -43 116 -92 246 -109 290 -16 44 -51 141 -78
215 -26 74 -58 161 -70 193 -20 50 -21 60 -9 68 27 17 40 8 81 -56 28 -44 44
-61 50 -53 6 10 8 9 9 -2 2 -41 7 -67 14 -85 5 -12 -9 -4 -36 23 -81 77 -90
44 -16 -63 22 -33 60 -89 84 -125 24 -35 43 -59 43 -54 0 6 -11 43 -25 83 -34
102 -22 119 35 46 23 -30 45 -54 47 -51 5 4 -206 416 -213 416 -2 0 10 -37 26
-82 17 -45 30 -84 30 -87 0 -3 -13 15 -30 40 -16 24 -38 55 -49 69 -13 17 -21
46 -24 95 -4 66 -3 68 9 38 26 -61 33 -43 9 22 -35 92 -120 453 -110 463 3 3
5 0 5 -7 0 -6 90 -239 200 -517 110 -279 200 -508 200 -511 0 -3 -9 5 -21 18
-18 21 -20 22 -14 4 7 -22 7 -23 -55 54 -24 29 -46 49 -47 44 -2 -6 10 -47 27
-92 16 -45 25 -79 20 -76 -15 9 -12 -8 14 -81 l24 -66 -29 33 -29 34 16 -40
c9 -22 34 -76 56 -120 21 -44 32 -71 23 -61 -39 50 -3 -40 113 -276 59 -122
82 -158 82 -129 0 4 -27 67 -59 140 -33 72 -58 131 -56 131 2 0 54 -75 116
-167 63 -93 130 -186 150 -208 33 -36 119 -191 119 -214 0 -15 62 -143 84
-174 24 -32 20 -36 -57 -67 -31 -12 -59 -26 -62 -29 -7 -12 6 -51 17 -51 6 0
69 29 142 64 72 36 181 88 241 117 61 28 299 142 530 252 231 110 449 212 485
227 77 33 814 384 1194 569 224 109 271 129 278 116 5 -8 17 -15 26 -15 9 0
-3 -10 -28 -21 -25 -11 -85 -47 -135 -79 -72 -47 -123 -70 -255 -116 -339
-116 -436 -162 -724 -343 -262 -165 -347 -213 -604 -341 -328 -163 -449 -234
-584 -347 -28 -23 -74 -47 -112 -60 l-65 -21 -21 35 c-11 19 -18 39 -15 44 4
5 -1 6 -9 3 -21 -8 -20 -30 4 -64 l20 -27 -60 -22 c-76 -28 -90 -46 -29 -38
l44 5 -40 -12 -40 -13 0 -56 c1 -66 10 -79 67 -86 l42 -6 -239 -127 -239 -127
-78 227 c-43 125 -177 531 -298 902 -231 706 -244 747 -304 925 -20 61 -64
193 -97 295 -32 102 -71 219 -85 260 -65 191 -174 522 -174 527 0 18 15 -22
94 -238z m5726 181 c-19 -11 -39 -19 -45 -19 -5 0 6 8 25 19 19 11 40 19 45
19 6 0 -6 -8 -25 -19z m-130 -60 c-19 -11 -39 -19 -45 -19 -5 0 6 8 25 19 19
11 40 19 45 19 6 0 -6 -8 -25 -19z m-463 -25 c-20 -20 -40 -48 -43 -63 -11
-44 -41 -106 -61 -123 -10 -9 -50 -31 -90 -49 -57 -26 -73 -38 -75 -57 -3 -21
-36 -39 -249 -137 -135 -62 -255 -117 -268 -121 -12 -3 -75 -32 -139 -62 -64
-30 -128 -59 -142 -64 l-25 -9 24 17 c13 10 51 39 85 66 34 27 75 56 91 64 17
9 44 26 61 39 17 13 111 60 210 104 170 77 337 165 378 199 18 16 61 91 51 91
-3 0 -60 -33 -128 -74 -156 -94 -211 -121 -377 -186 -172 -67 -213 -88 -292
-148 -88 -68 -129 -87 -248 -117 -57 -14 -139 -40 -184 -59 -44 -19 -101 -38
-126 -41 -85 -13 -296 -117 -524 -258 l-128 -79 -67 6 c-97 10 -154 -11 -253
-91 -45 -36 -93 -69 -107 -74 -64 -21 -604 -169 -607 -166 -5 4 -4 5 526 236
239 104 512 224 605 266 324 146 2116 924 2129 925 5 0 -7 -16 -27 -35z m-152
-365 c14 -5 25 -14 25 -19 0 -20 -69 -51 -179 -81 -238 -64 -384 -130 -586
-263 -105 -69 -198 -117 -275 -142 -30 -10 -72 -26 -93 -37 -22 -11 -40 -18
-42 -16 -1 2 -7 13 -14 25 -7 15 -17 20 -33 17 -37 -7 49 34 602 291 339 157
533 242 547 239 12 -2 34 -9 48 -14z m139 -29 c18 -7 18 -8 2 -14 -10 -4 -36
-4 -59 0 -33 5 -37 8 -22 14 25 10 55 10 79 0z m-1339 -418 c-62 -32 -123 -59
-335 -149 -65 -28 -96 -31 -65 -8 59 45 182 109 209 109 22 0 34 6 41 22 8 18
23 23 90 33 45 6 88 16 96 21 8 5 19 9 24 8 6 0 -21 -16 -60 -36z m11 -136
c-10 -7 -52 -38 -94 -70 -58 -45 -78 -55 -88 -46 -21 17 -18 23 26 48 50 28
52 36 3 15 -56 -24 -70 -27 -77 -16 -3 5 16 15 42 22 26 6 81 22 122 35 88 27
91 27 66 12z m-3031 -472 c52 -125 95 -230 95 -232 0 -3 -46 54 -101 126 -93
120 -129 157 -99 101 6 -12 10 -23 8 -26 -2 -2 -14 17 -27 43 -16 34 -18 43
-7 34 20 -17 20 -8 0 30 -8 17 -13 33 -11 35 2 3 24 -29 47 -71 40 -69 63 -88
83 -69 7 7 -31 115 -74 212 -17 37 -25 62 -19 56 6 -6 53 -113 105 -239z
m1750 26 c-11 -11 -225 -115 -475 -232 -630 -296 -872 -418 -882 -446 -4 -12
-4 -24 0 -27 5 -3 39 12 77 31 154 80 1056 505 1060 501 2 -2 -23 -21 -56 -43
-64 -43 -71 -54 -36 -56 20 -2 20 -2 -3 -6 -33 -6 -138 -52 -173 -76 -37 -25
-457 -246 -522 -274 -27 -12 -76 -33 -108 -47 -33 -14 -81 -44 -107 -66 -54
-45 -66 -48 -75 -20 -4 13 -15 20 -30 20 -36 0 -38 -16 -6 -43 28 -23 29 -26
13 -40 -19 -17 -23 -10 -115 203 -24 58 -56 131 -71 162 l-26 58 28 6 c15 4
50 20 78 36 63 35 70 35 69 1 0 -24 4 -28 28 -26 26 2 85 40 86 55 1 4 -23 5
-51 2 l-53 -4 42 14 c23 7 54 17 69 20 24 6 26 5 15 -8 -21 -25 4 -20 48 10
22 14 100 42 178 64 76 21 201 56 278 78 185 52 215 60 380 87 77 13 185 37
240 53 123 36 124 37 100 13z m-1825 -106 c0 -5 -5 -3 -10 5 -5 8 -10 20 -10
25 0 6 5 3 10 -5 5 -8 10 -19 10 -25z m286 -242 c-10 -10 -19 5 -10 18 6 11 8
11 12 0 2 -7 1 -15 -2 -18z m1194 -43 c-8 -5 -19 -10 -25 -10 -5 0 -3 5 5 10
8 5 20 10 25 10 6 0 3 -5 -5 -10z m-80 -35 c-14 -8 -29 -14 -35 -14 -5 0 1 6
15 14 14 8 30 14 35 14 6 0 -1 -6 -15 -14z"/>
<path d="M3542 948 c-18 -18 -15 -36 7 -48 11 -5 22 -10 25 -10 8 0 8 34 0 54
-7 19 -16 20 -32 4z"/>
<path d="M3567 790 c-19 -32 -13 -38 16 -16 17 13 24 46 9 46 -4 0 -16 -13
-25 -30z"/>
<path d="M3870 761 c0 -6 4 -13 10 -16 6 -3 7 1 4 9 -7 18 -14 21 -14 7z"/>
<path d="M3588 617 c-30 -12 -35 -33 -15 -61 13 -17 15 -16 35 18 34 57 31 63
-20 43z"/>
<path d="M3623 548 c-13 -6 -23 -15 -23 -20 0 -5 14 -2 30 7 45 23 38 35 -7
13z"/>
<path d="M8730 5089 c0 -14 6 -39 14 -55 8 -16 46 -104 86 -197 40 -92 77
-170 83 -174 6 -4 8 0 5 8 -3 8 -39 97 -79 199 -40 102 -81 199 -91 215 l-18
30 0 -26z"/>
<path d="M9020 4610 c6 -11 13 -20 16 -20 2 0 0 9 -6 20 -6 11 -13 20 -16 20
-2 0 0 -9 6 -20z"/>
<path d="M9051 4560 c11 -22 11 -24 -3 -12 -15 12 -78 25 -78 16 0 -2 66 -136
146 -297 80 -160 163 -339 185 -397 l38 -105 0 55 c1 136 -46 313 -129 485
-59 122 -118 217 -131 210 -5 -4 -7 0 -4 7 3 7 -5 24 -16 38 l-20 25 12 -25z
m276 -722 c-3 -8 -6 -5 -6 6 -1 11 2 17 5 13 3 -3 4 -12 1 -19z"/>
<path d="M8936 4507 c3 -10 9 -15 12 -12 3 3 0 11 -7 18 -10 9 -11 8 -5 -6z"/>
<path d="M6693 2033 c-24 -13 -43 -29 -43 -34 0 -6 20 4 45 21 25 17 45 33 45
35 0 6 3 7 -47 -22z"/>
</g>
</svg>
